<?xml version="1.0" encoding="utf-8"?>
<!-- Generator: Adobe Illustrator 16.0.3, SVG Export Plug-In . SVG Version: 6.00 Build 0)  -->
<svg version="1.2" baseProfile="tiny" xmlns="http://www.w3.org/2000/svg" xmlns:xlink="http://www.w3.org/1999/xlink" x="0px"
	 y="0px" width="50px" height="50px" viewBox="0 0 50 50" xml:space="preserve">
<g id="Ebene_1" display="none">
	<path display="inline" fill="#3C3C3C" d="M0.706,24.02L19.338,4.854c0,0,2.218-2.341,2.218,0.198c0,2.54,0,8.691,0,8.691
		s1.492,0,3.786,0c6.564,0,18.483,0,23.34,0c0,0,1.318-0.345,1.318,1.658c0,2.002,0,18.267,0,19.703c0,1.438-1.1,1.395-1.1,1.395
		c-4.731,0-17.063,0-23.39,0c-2.069,0-3.412,0-3.412,0s0,4.931,0,8.029c0,3.087-2.301,0.758-2.301,0.758S2.375,28.42,0.559,26.608
		C-0.779,25.27,0.706,24.02,0.706,24.02z"/>
</g>
<g id="Ebene_2">
	<path id="_x3C_Compound_Path_x3E__1_" fill="#3C3C3C" d="M37.611,29.398v-7.255c-0.026-5.596-3.863-10.944-9.604-12.303
		c0,0-0.189-2.821-3.008-2.821c-2.863,0-3.005,2.74-3.005,2.74c-5.74,1.354-9.532,6.788-9.562,12.384v7.024
		c0,3.432-2.258,4.023-4.933,6.82h35C39.825,33.19,37.611,32.832,37.611,29.398z M25,42.98c3.075,0,5.645-2.455,6.338-5.595H18.662
		C19.357,40.525,21.927,42.98,25,42.98z"/>
</g>
</svg>
